<?xml version="1.0" encoding="UTF-8"?>
<svg id="bubble" xmlns="http://www.w3.org/2000/svg" viewBox="0 0 200.59 195.07">
  <defs>
    <style>
      .cls-1 {
        fill: #561b92;
      }

      .cls-1, .cls-2, .cls-3 {
        isolation: isolate;
      }

      .cls-2 {
        fill: #fffc00;
      }

      .cls-3 {
        fill: #8017ea;
        stroke: #231f20;
        stroke-linecap: round;
        stroke-miterlimit: 10;
        stroke-width: 8px;
      }
    </style>
  </defs>
  <path class="cls-3" d="M196.59,97.57c0,30.48-9.87,57.1-32.89,74.49-16.63,12.56-34.57,19.01-57.28,19.01-54.16,0-102.42-42.37-102.42-94.86S44.43,4,98.6,4s97.99,41.09,97.99,93.57Z"/>
  <path class="cls-1" d="M41.61,165.11c10.54,10.6,28.57,17.51,43.14,20.7,33.8,7.31,70.71-3.82,92.03-31.34,24.53-33.53,22.47-86.68-6.21-117.18-4.16-4.38-9.09-9.05-13.92-12.45-3.4-2.34-3.94-2.75-7.59-4.7-4.15-2.22-12.96-5.16-11.71-4.18.9.71,3.76,3.17,5.66,4.83,1.78,1.56,3.19,2.78,5.76,5.63,10.78,11.95,19.95,26.23,24.66,42.42,3.11,11.01,4.44,22.47,3.89,33.9-1.5,13.07-5.38,25.81-12.6,36.92-22.67,33.54-68.56,41.13-105.5,30.55-5.64-1.37-13.81-4.35-16.79-6.2-.44-.28-3.69-2.81-3.93-2.75-.17.04,2.96,3.62,3.08,3.8l.03.05Z"/>
  <path class="cls-2" d="M55.11,33.75c2.69,1.11,4.18,3.72,4.74,4.7.16.28.47.85.7,1.44,1.61,4.11-.66,8.97-1.96,11.78-1.73,3.71-3.71,6.17-5,7.74-.9,1.11-2.95,3.49-6.07,5.93-2.22,1.73-3.52,2.72-5.59,3.19-.97.22-3.42.77-5.78-.48-2.34-1.24-3.21-3.54-3.89-5.33-1.6-4.25-.76-8.09-.41-9.59.66-2.84,1.81-4.71,3.07-6.78,2.62-4.28,5.54-6.82,7.22-8.26,2.37-2.03,3.82-3.24,6.22-4.04,1.64-.54,4.14-1.37,6.74-.3Z"/>
  <path class="cls-2" d="M29.07,71.43c2.31.82,3.51,2.8,4.31,4.11.46.77.83,1.38,1.03,2.31.08.37.55,2.55-.56,4.08-1.44,2.01-4.94,2.05-7.25.92-2.94-1.44-3.6-4.57-3.67-4.89-.07-.37-.46-2.52.72-4.61.34-.6.85-1.51,1.92-2,1.41-.66,2.85-.15,3.5.08Z"/>
</svg>