<?xml version="1.0" encoding="UTF-8"?>
<svg id="burple_text" xmlns="http://www.w3.org/2000/svg" viewBox="0 0 307.68 65.71">
  <defs>
    <style type="text/css">
      .cls-1 {
        fill: #8017ea;
      }

      .cls-1, .cls-2 {
        isolation: isolate;
      }

      .cls-3 {
        fill: #080505;
      }

      .cls-4, .cls-5 {
        fill: #561b92;
      }

      .cls-5 {
        stroke: #080505;
        stroke-miterlimit: 10;
        stroke-width: 2px;
      }
    </style>
  </defs>
  <path id="outside_u" class="cls-5" d="M111.78,34.28c-.57-3.94-1.07-5.6-1.31-6.33-.72-2.23-1.47-3.63-2-4.5-.79-1.31-1.53-2.5-2.97-3.53-.24-.17-1.25-.88-2.78-1.33-1.97-.59-3.63-.42-4.06-.36-1.55.2-2.51.32-3.25.67-.12.06-.5.25-1,.22-.18,0-.45-.05-.92-.28-.57-.29-.96-.65-1.72-1.36-.62-.58-.93-.88-.94-.89-.17-.16-1.46-1.41-3.08-2.5-.58-.39-1.52-1.02-2.86-1.58-.38-.16-1.85-.76-3.94-1.06-1.24-.17-3.81-.51-6.72.33-4.31,1.25-6.76,4.34-7.84,5.7-1.93,2.43-2.75,4.73-3.67,7.31-1.05,2.95-1.48,5.5-1.67,6.63-.29,1.76-.38,3.04-.41,3.41-.15,2.19-.05,3.96.04,5,.01.17.07.83.2,1.81.24,1.8.55,4.08,1.41,6.78.83,2.6,1.78,4.4,2.37,5.48,1.27,2.35,2.07,3.17,2.7,3.7.83.69,1.62,1.09,2.44,1.52,1.51.77,2.76,1.14,3.67,1.41.93.27,2.2.58,3.74.78.87.11,2.55.28,4.7.15,1.38-.08,2.89-.19,4.78-.78,1.92-.6,2.88-.9,3.48-1.7.46-.62.8-.91,1.48-1.48.22-.19.51-.42.89-.41.13,0,.37.04.78.37.53.42.8.9.89,1.04.44.71,1.16,1.01,2.3,1.48,1.26.53,2.32.57,3.7.61,1.51.05,2.48.08,3.74-.26.41-.11,2.61-.73,4.56-2.74,1.18-1.22,1.73-2.41,2.19-3.37.85-1.81,1.13-3.34,1.41-4.93.18-1.05.38-2.49.44-4.67.12-4.04-.3-7.11-.77-10.35ZM87.6,43.58c-.06.12-.22.43-.56.69-.23.18-.23.1-.79.43-.21.13-.29.18-.42.18-.12,0-.29-.05-.53-.35-.31-.38-.44-.8-.53-1.24-.12-.6-.12-1.06-.11-1.5,0-.74.09-1.29.14-1.62.06-.41.14-.95.33-1.51.21-.61.4-.84.43-1,0,0,0-.04.03-.05.06-.03.21.2.25.26.28.43.36.38.78,1,.37.55.7,1.04.93,1.78.05.17.23.74.25,1.51.02.55.02.96-.21,1.42Z"/>
  <path id="inside_u" class="cls-1" d="M66.25,28.57c.21-.93.48-1.78,1.59-4.48.61-1.49.92-2.23,1.11-2.59.74-1.4,1.54-2.39,2-2.93.49-.57,1.3-1.5,2.59-2.41,2.26-1.59,4.42-2.01,4.96-2.11,1.33-.24,2.51-.22,3.44-.11,1.54.17,2.65.6,3.3.85,1.1.43,1.82.87,2.81,1.48,1.42.87,2.37,1.64,2.94,2.59.21.34.4.77.3,1.22-.07.3-.26.51-.56.78-.94.84-1.62.97-2.81,1.78-.17.12-.4.29-.85.63-1.09.82-1.63,1.23-2.04,1.63-1.03,1.01-1.57,2.04-1.85,2.59-.24.47-.46.9-.59,1.52-.07.3-.21,1-.07,1.85.24,1.45,1.06,1.74.89,2.67-.07.38-.21.3-.67,1.26-.17.37-.33.73-.62,1.6-.4,1.2-.6,1.8-.75,2.43-.54,2.33-.27,4.19-.21,4.57.13.82.23,1.46.65,2.22.19.34.74,1.31,1.89,1.95,1.02.57,1.96.56,3.3.56,1.07,0,1.78-.01,2.67-.37,1.53-.62,2.32-1.8,2.56-2.19.63-1.02.74-1.97.81-2.7.19-1.84-.3-3.27-.74-4.56-.51-1.49-1.14-2.54-1.48-3.11-.45-.75-.85-1.41-1.56-2.19-.99-1.08-1.44-1.12-2.15-2.15-.45-.65-.85-1.23-.85-2.04,0-.97.58-1.73.93-2.19.3-.4.6-.67,1.04-1.04.87-.73,1.66-1.39,3.04-2.26.85-.54,1.73-1.09,2.96-1.63,1.05-.46,2.3-1.01,3.96-1.22,1.2-.15,3.17-.41,5.22.61,1.83.91,2.79,2.38,3.28,3.11.49.75.85,1.67,1.56,3.52.72,1.87,1.07,3.17,1.15,3.48.24.92.37,1.6.56,2.56.21,1.11.47,2.47.67,4.22.32,2.89.28,5.13.26,5.81-.04,1.39-.08,2.59-.37,4.19-.18,1-.41,2.21-1.04,3.7-.33.78-.9,2.13-2.11,3.56-.77.91-1.45,1.71-2.67,2.3-.46.22-1.97.88-3.81.59-.23-.04-.83-.25-2.04-.67-1.95-.68-2.37-.94-2.7-1.37-.34-.44-.56-1.03-.67-1.3-.25-.65-.25-.97-.59-1.44-.18-.25-.45-.62-.85-.67-.4-.04-.74.27-.96.48-.75.7-1.6,1.28-2.33,2-.33.33-1.22,1.2-1.93,1.74-1.35,1.03-2.69,1.31-4.56,1.7-2.59.55-4.64.41-5.19.37-1.34-.1-2.98-.23-4.89-1.11-2.48-1.14-3.91-2.86-4.59-3.7-1.37-1.69-1.98-3.23-2.52-4.59-1.03-2.61-1.32-4.78-1.56-6.67-.28-2.28-.27-4.02-.26-5.63,0-1.1.03-2.93.3-4.81.07-.47.22-1.47.44-2.63.09-.45.17-.89.26-1.28Z"/>
  <path id="outside_r" class="cls-5" d="M126.92,19.32c-.38.3-2.83,1.58-4.2,2.91-.36.35-1.22,1.2-1.69,2.58-.09.26-.41,1.26-.31,2.58.04.5.12.82.69,2.53.79,2.36,1,2.85,1.33,4,.16.54.39,1.36.58,2.36.41,2.14.4,3.83.39,4.83-.01,1-.1,3.14-.69,5.78-.3,1.32-.69,3.03-1.58,5.11-.45,1.04-.87,1.83-1.14,3.19-.29,1.51-.16,2.53-.11,2.86.11.71.26,1.72,1,2.64.24.3.68.76,1.75,1.31.52.27,1.85.88,4.75,1.19,1.42.15,2.8.3,4.67.08.43-.05,2.26-.28,4.56-1.17,2.01-.78,3.13-1.21,4.28-2.36.52-.52,2.15-2.3,2.28-4.74.02-.31,0-.64-.06-1.3-.13-1.75-.43-3.11-.67-4.07-.39-1.59-.54-1.87-1.52-5.11-.84-2.79-1.03-3.6-1.19-4.63-.32-2.17-.13-3.19-.07-3.48.18-.92.45-2.25,1.59-3.3,0,0,1.55-1.42,4.33-1.26.04,0,.09,0,.15.02.16.05.51.22.76,1.12.27.98.21,1.99.09,2.88-.07.5-.2,1.13-.46,2.41-.28,1.36-.36,1.63-.41,2.24-.07.94-.11,1.5.14,2.09.37.88,1.16,1.31,1.94,1.72.76.4,1.92.86,3.72,1.04,1.12.11,3.23.29,5.72-.61.43-.16,2.54-.94,4.58-2.94,2.86-2.81,3.68-6.13,4.24-8.44.62-2.52.55-4.23.52-4.74-.11-1.9-.57-3.33-.78-3.93-1.04-2.91-2.79-4.7-3.37-5.26-2.06-1.99-4.2-2.77-5.7-3.3-2.2-.77-4-.93-5.37-1.04-.79-.06-2.97-.2-5.74.22-1.9.29-3.03.47-4.37,1.22-1.43.8-2.41,1.86-2.7,2.19-.37.41-1.74,1.91-1.89,2.44,0,.03-.04.14-.11.16-.15.04-.38-.4-.45-.53-.38-.69-1.12-1.12-2.04-1.65-.54-.32-1.24-.71-2.25-.89-.54-.1-.95-.09-1.31-.08,0,0-1.51.03-3.31.78-.24.1-.43.23-.43.23-.08.06-.14.1-.15.11Z"/>
  <path id="inside_r" class="cls-1" d="M125.85,22.56c-.6.57-.74.58-.96.88-.23.32-.32.62-.38.85-.09.35-.11.66-.07,1.26.05.75.07,1.12.19,1.74.2,1,.45,1.5,1,2.96.44,1.17.73,1.92,1.01,2.9.37,1.26.55,2.24.67,2.85.13.69.36,1.99.46,3.62.03.5.14,2.74-.31,5.67-.21,1.38-.47,3.06-1.26,5.11-.79,2.04-1.19,3.06-1.68,3.89-.16.27-.64,1.06-.9,2.17-.14.57-.17,1.04-.15,1.44.01.39.03.86.25,1.38.32.76.9,1.17,1.19,1.38.83.58,1.64.68,3,.83.81.09,1.44.09,2.68.08,1.29,0,1.94,0,2.6-.11,1.2-.19,2.08-.54,2.74-.82.88-.37,1.89-.79,2.98-1.69.61-.51,1.41-1.18,1.97-2.33.65-1.33.61-2.55.58-3.46-.03-1.05-.3-2.05-.83-4.01-.32-1.19-.37-1.2-.81-2.71-.55-1.92-.87-3.02-1.15-4.5-.26-1.37-.47-2.54-.42-4.12.04-1.18.22-2.05.26-2.28.19-.93.44-2.13,1.24-3.39.4-.63,1.39-2.17,3.37-2.98,1.35-.55,2.52-.51,2.91-.48.7.05,2.51.17,3.73,1.6.85.99,1.01,2.15,1.06,2.47.08.59.02,1.05-.06,1.67-.09.74-.25,1.31-.56,2.42-.39,1.41-.47,1.44-.56,2.06-.03.23-.12.97-.03,1.92.06.59.09.89.19,1.11.47.95,1.91,1.11,2.89,1.22.46.05,1.93.18,3.75-.42.99-.33,1.68-.73,2.15-1.02.64-.39,2.02-1.3,3.31-2.91,1.25-1.55,1.81-2.99,2.17-3.93.36-.95,1.03-2.76,1.06-5.2.01-1.18.01-3.22-1.07-5.5-1.29-2.71-3.34-4.11-4.33-4.78-2.55-1.7-4.98-2.06-6.41-2.26-2.77-.38-4.84.04-5.33.15-1.17.25-2.67.6-4.19,1.74-.52.39-1.38,1.04-2.06,2.17-.34.56-.38.82-.97,1.78-.64,1.04-1.01,1.42-1.39,1.69-.36.27-.77.57-1.33.56-.17,0-.64-.05-1.33-.67-.98-.88-.8-1.47-1.58-2.39-.82-.97-1.89-1.34-2.44-1.53-.44-.15-1.34-.45-2.5-.33,0,0-1.27.13-3.08,1.25-.47.29-.83.61-.83.61-.18.16-.17.17-.42.41Z"/>
  <g id="outside_p" class="cls-2">
    <path class="cls-4" d="M179.16,64.71c-.52,0-.98-.03-1.39-.06-1.18-.08-2.35-.29-3.48-.63-1.07-.32-2.07-.63-3.15-1.47-.45-.35-1.19-.94-1.69-1.99-.54-1.13-.49-2.18-.47-2.8.04-.82.21-1.62.51-2.4.36-.92.77-1.41,1.65-2.47.26-.32.58-.69.95-1.16.89-1.1,1.34-1.66,1.59-2.05.51-.82.98-1.9,1.37-3.2.24-.78.67-2.49.92-5.21.09-1,.09-1.39.09-2.08,0-.75,0-1.78.09-4.13l.02-.36c.05-1.28.1-2.28-.01-3.71-.1-1.29-.17-2-.5-2.93-.46-1.28-1.19-2.31-1.5-2.76-.23-.33-.41-.55-.57-.74-.26-.33-.51-.63-.85-1.22-.4-.7-.82-1.42-1.01-2.47-.09-.53-.2-1.62.18-2.9.27-.91.73-1.75,1.35-2.45.27-.31.86-.9,1.74-1.4.24-.14.42-.22.72-.35.11-.05,1.12-.49,2.13-.79,1.04-.3,2.46-.72,4.24-.72.35,0,.72.02,1.1.05,1.83.18,3.04.29,3.99,1.33.11.12.22.25.32.39.1.13.25.32.31.36-.03-.03.1-.14.17-.19,1.12-.88,2.4-.98,4.72-1.15.37-.03.85-.06,1.43-.06.95,0,1.86.09,2.78.27.61.12,1.89.44,3.61,1.24,1.17.54,3.59,1.66,6,4.03,2.54,2.5,3.8,5.12,4.22,6.13,1.46,3.51,1.38,6.49,1.35,7.77-.03,1.14-.08,3.25-1.01,5.77-1.07,2.89-2.67,4.71-3.36,5.48-.38.43-1.43,1.56-2.98,2.72-.98.74-2.33,1.75-4.37,2.5-1.75.65-3.2.79-4.16.89-.61.06-1.3.13-2.03.13-.92,0-1.71-.11-2.43-.34-.34-.11-1.12-.38-1.87-.74-.35-.17-.68-.32-1.07-.55l-.07-.04c.03.11.07.25.12.42.02.08.37,1.21.68,4,.1.91.15,2.33-.16,3.96-.18.95-.43,2.24-1.32,3.64-.29.46-1.12,1.63-2.58,2.62-1.36.93-2.63,1.26-3.31,1.44-.99.26-1.98.38-3.05.38h0Z"/>
    <path class="cls-3" d="M182.11,13.26c.32,0,.66.01,1,.05,1.7.16,2.66.26,3.35,1.01.38.41.66,1,1.23,1.05.03,0,.05,0,.07,0,.41,0,.72-.29.93-.45.82-.64,1.91-.72,4.11-.89.35-.03.81-.06,1.36-.06.72,0,1.59.06,2.59.25.32.06,1.56.32,3.39,1.17,1.25.58,3.48,1.63,5.72,3.83,2.62,2.57,3.76,5.22,4,5.81,1.35,3.24,1.31,6.03,1.28,7.36-.03,1.21-.09,3.13-.94,5.44-.98,2.66-2.46,4.36-3.17,5.17-.21.23-1.23,1.38-2.83,2.58-1.01.76-2.25,1.67-4.11,2.36-1.6.59-2.9.73-3.92.83-.59.06-1.25.13-1.93.13s-1.43-.07-2.13-.29c-.29-.09-1.02-.35-1.75-.69-.33-.16-.64-.3-1-.51-.17-.1-.36-.18-.52-.29-.24-.16-.32-.24-.46-.24,0,0,0,0,0,0-.22,0-.39.2-.44.26-.41.49-.07,1.52.04,1.85,0,0,.33,1.06.63,3.78.07.63.17,2.01-.15,3.67-.18.93-.39,2.05-1.19,3.3-.18.28-.91,1.38-2.3,2.33-1.19.82-2.28,1.11-3,1.3-1.06.28-2,.35-2.8.35-.49,0-.93-.03-1.31-.05-.76-.05-1.92-.19-3.26-.59-1.05-.32-1.91-.58-2.81-1.3-.45-.35-1.02-.81-1.41-1.63-.43-.91-.4-1.75-.37-2.33.02-.41.09-1.17.44-2.07.4-1.01.82-1.36,2.45-3.37.92-1.13,1.38-1.7,1.66-2.15.26-.41.88-1.45,1.48-3.44.14-.46.67-2.25.96-5.41.2-2.13-.01-1.64.19-6.26.06-1.46.13-2.56,0-4.19-.1-1.27-.17-2.11-.56-3.19-.49-1.38-1.26-2.47-1.63-3-.62-.88-.87-1.02-1.37-1.89-.41-.7-.74-1.29-.89-2.15-.05-.26-.2-1.25.16-2.44.15-.5.46-1.3,1.14-2.07.14-.15.65-.72,1.48-1.19.22-.12.38-.19.64-.31.09-.04,1.04-.46,2-.74,1-.29,2.32-.68,3.96-.68M182.11,11.26c-1.92,0-3.42.44-4.52.76-1.05.31-2.06.75-2.25.83-.27.12-.5.22-.8.39-1.01.57-1.69,1.25-2,1.61-.71.81-1.25,1.79-1.56,2.83-.44,1.47-.32,2.74-.21,3.36.22,1.22.7,2.06,1.13,2.8.38.66.67,1.01.94,1.35.15.18.31.38.53.69.29.41.97,1.37,1.38,2.52.29.81.35,1.44.45,2.67.11,1.37.06,2.35.01,3.59l-.02.35c-.1,2.38-.1,3.46-.09,4.18,0,.68,0,1.03-.09,1.98-.25,2.63-.66,4.27-.89,5.01-.37,1.22-.8,2.22-1.26,2.96-.22.34-.68.92-1.52,1.95-.38.46-.69.84-.95,1.15-.93,1.11-1.39,1.67-1.81,2.75-.34.88-.54,1.79-.58,2.72-.03.67-.08,1.92.56,3.28.6,1.26,1.49,1.96,1.98,2.34,1.22.96,2.37,1.31,3.48,1.64,1.2.36,2.44.59,3.7.67.44.03.91.06,1.45.06,1.15,0,2.23-.14,3.3-.42.74-.19,2.12-.55,3.62-1.58,1.54-1.05,2.45-2.28,2.86-2.91,1-1.56,1.27-2.97,1.46-3.99.27-1.39.33-2.86.17-4.26-.11-1.05-.24-1.87-.34-2.49.67.28,1.19.44,1.27.47.82.26,1.72.39,2.74.39.78,0,1.5-.07,2.13-.14,1.01-.1,2.54-.26,4.41-.95,2.18-.8,3.65-1.91,4.62-2.64,1.63-1.22,2.73-2.41,3.13-2.86.72-.82,2.42-2.74,3.54-5.8.99-2.67,1.04-4.89,1.07-6.09.03-1.34.11-4.48-1.43-8.18-.44-1.07-1.76-3.83-4.45-6.47-2.54-2.49-5.07-3.66-6.28-4.22-1.35-.62-2.71-1.09-3.84-1.31-.97-.19-1.97-.29-2.98-.29-.6,0-1.09.03-1.51.06-2.12.16-3.51.26-4.69.96,0-.01-.02-.02-.03-.03-1.21-1.32-2.72-1.47-4.63-1.65-.4-.04-.8-.06-1.2-.06h0Z"/>
  </g>
  <path id="inside_p" class="cls-1" d="M178.58,16.05c-.5.29-1.19.7-1.78,1.52-.24.34-.65.92-.78,1.78-.02.11-.25,1.83.74,2.74.21.19.28.17.63.48.46.41.75.81,1,1.19.65.97,1.01,1.51,1.33,2.3.41.99.51,1.86.7,3.56.17,1.55.21,2.73.22,2.96.07,2.08.15,4.52-.15,7.85-.31,3.52-.85,5.88-1.04,6.67,0,0-.56,2.37-1.93,4.85-.36.66-.65,1.07-1.07,1.44-.61.53-.94.51-1.96,1.22-.68.47-1.03.71-1.33,1.15-.54.77-.6,1.58-.63,2.07-.04.6-.09,1.31.3,2.04.44.83,1.18,1.19,1.78,1.48.98.48,1.83.55,2.78.63.35.03,1.68.12,3.48-.22,1.37-.26,2.07-.39,2.89-.89,1.53-.93,2.19-2.38,2.48-3.04.66-1.48.67-2.75.67-4.22,0-.25,0-5.31-.81-7.67-.03-.08-.39-1.15,0-1.48.11-.1.48-.3.48-.3h0s.7.6.78.67c.22.18.75.59,2.41,1.22,1.15.44,1.83.7,2.85.89,1.58.3,2.84.22,3.3.19.34-.03,1.83-.16,3.76-.94,3.63-1.45,5.84-3.95,6.17-4.33,3.14-3.64,3.62-7.64,3.72-8.83.11-1.28.33-4.36-1.33-7.69-2.11-4.24-5.83-6.01-7.28-6.67-1.35-.62-4.4-2.01-7.36-1.42-3.1.62-4.65.93-5.44,1.42-.08.05-.3.19-.58.17-.71-.06-1.22-1.1-1.61-1.89-.35-.71-.3-.83-.56-1.11-.28-.31-.74-.61-1.81-.75-2.66-.35-4.79.85-5.01.97Z"/>
  <g id="circle">
    <path class="cls-4" d="M200.14,27.7c0,1.58-1.87,1.85-3.46,1.71-.81-.07-1.63-.25-2.17-.77s-1-1.32-1-2.11.33-1.38,1.15-2.04c.64-.51,1.34-.69,2.13-.69,1.64,0,3.35,2.31,3.35,3.89Z"/>
  </g>
  <g id="outside_l">
    <path class="cls-4" d="M236.32,63.78c-1.34,0-2.53-.12-3.83-.26-2.61-.28-4.29-.76-5.24-1.11-.83-.31-2.1-.77-3.5-1.79-1.26-.92-2.36-2.08-3.18-3.36-1.21-1.9-1.54-3.59-1.86-5.22-.51-2.62-.39-4.66-.31-6.01.15-2.46.58-4.3.97-5.93.24-1.01.77-3.05,1.64-5.45.2-.56.36-.95.54-1.39.21-.54.46-1.16.87-2.28l.43-1.17c.25-.69.37-1.04.59-1.51.11-.24.2-.48.38-.95.04-.1.13-.35.2-.68-.12-.04-.21-.05-.21-.05-1.03-.11-2.38-.94-2.4-.95-1.24-.78-1.57-2.2-1.89-3.56-.47-2.02-.26-3.78,0-4.9.4-1.75,1.12-2.94,1.51-3.57,1.07-1.76,2.47-3.2,3.95-4.05.47-.27,1.03-.53,1.06-.54.34-.15,1.36-.62,2.62-.88.69-.14,1.41-.22,2.13-.22s1.46.07,2.16.22c2.09.43,3.54,1.38,4.06,1.77.49.36,1.72,1.38,2.71,3.08.92,1.57,1.18,2.96,1.38,3.98.34,1.76.28,3.15.24,4.26-.03.89-.11,1.51-.27,2.75-.28,2.22-.62,3.97-.79,4.82-.4,1.94-.81,3.36-1.05,4.22-.24.86-.39,1.32-.57,1.88-.17.54-.38,1.17-.73,2.35-.3,1.03-.51,1.79-.91,3.24l-.05.19c-.39,1.45-.69,2.78-.82,3.75-.07.52-.1.93-.11,1.05-.03.42-.04.86-.03,1.3.07-.14.14-.28.23-.41,1-1.56,2.7-2.04,3.26-2.2.54-.15,1.07-.23,1.62-.23.82,0,1.56.16,2.29.32,1.22.27,2.37.52,3.47,1.47,1.32,1.15,1.73,2.59,1.97,3.45.49,1.71.33,3.07.2,4.16-.19,1.59-.65,3.13-1.38,4.56-.54,1.07-1.22,2.39-2.63,3.52-.9.72-2.24,1.31-3.96,1.75-1.55.39-3.1.58-4.76.58h0Z"/>
    <path class="cls-3" d="M230.79,8.94c.91,0,1.62.13,1.96.2,2.05.42,3.39,1.39,3.67,1.59.28.21,1.48,1.12,2.44,2.78.83,1.42,1.07,2.67,1.26,3.67.31,1.61.27,2.91.22,4.04-.03.85-.11,1.46-.26,2.67-.31,2.46-.68,4.3-.78,4.74-.39,1.85-.78,3.23-1.04,4.15-.48,1.68-.59,1.82-1.3,4.22-.32,1.08-.53,1.87-.96,3.44-.13.5-.63,2.34-.85,3.87-.08.55-.11.99-.12,1.12-.01.2-.05.74-.03,1.46.01.56.02.84.07,1.03.17.6.66,1.28,1.03,1.28.02,0,.03,0,.05,0,.45-.08.21-1.16.92-2.28.79-1.24,2.21-1.64,2.69-1.78.48-.13.92-.19,1.34-.19.71,0,1.37.14,2.07.3,1.17.26,2.12.46,3.03,1.25,1.09.95,1.43,2.16,1.67,2.97.43,1.52.29,2.75.17,3.78-.22,1.87-.82,3.32-1.28,4.22-.52,1.02-1.12,2.2-2.36,3.19-.33.26-1.28.98-3.58,1.56-1.64.41-3.14.55-4.52.55s-2.57-.13-3.72-.25c-2.95-.32-4.56-.89-5-1.06-.88-.32-2-.75-3.26-1.67-1.66-1.21-2.59-2.56-2.93-3.09-1.11-1.74-1.41-3.3-1.72-4.87-.48-2.45-.38-4.38-.3-5.76.14-2.36.55-4.11.94-5.76.17-.74.69-2.81,1.61-5.33.45-1.22.65-1.63,1.41-3.67.59-1.59.7-1.98.99-2.6.13-.27.23-.54.43-1.08.02-.06.15-.41.24-.87.08-.44.05-.57,0-.66-.1-.17-.28-.24-.52-.33-.3-.12-.55-.14-.57-.15-.66-.07-1.69-.62-1.98-.8-.9-.56-1.15-1.68-1.44-2.94-.47-2.02-.17-3.7,0-4.44.36-1.57,1-2.64,1.39-3.28.32-.52,1.57-2.54,3.59-3.7.44-.25.94-.49.98-.5.35-.16,1.28-.58,2.41-.81.7-.15,1.35-.2,1.93-.2M230.79,6.94c-.79,0-1.58.08-2.34.24-1.37.28-2.47.79-2.83.95-.06.03-.63.29-1.15.59-2.07,1.2-3.48,3.05-4.3,4.4-.39.64-1.19,1.96-1.63,3.87-.28,1.22-.51,3.14,0,5.34.34,1.49.73,3.19,2.33,4.19.01,0,.88.55,1.86.87-.08.21-.14.36-.2.48-.24.51-.38.89-.63,1.59-.11.3-.24.68-.42,1.17-.41,1.11-.65,1.72-.86,2.25-.18.45-.34.85-.55,1.42-.85,2.31-1.38,4.3-1.68,5.56-.4,1.67-.84,3.56-.99,6.1-.08,1.31-.21,3.51.33,6.26.32,1.64.69,3.5,2,5.56.62.97,1.71,2.38,3.44,3.63,1.51,1.1,2.85,1.6,3.74,1.93,1.44.53,3.34.94,5.48,1.17,1.03.11,2.43.26,3.93.26,1.74,0,3.38-.2,5.01-.61,1.87-.47,3.33-1.12,4.35-1.93,1.58-1.27,2.34-2.76,2.89-3.85.78-1.54,1.28-3.19,1.48-4.89.13-1.12.31-2.66-.23-4.56-.26-.91-.74-2.59-2.28-3.93-1.29-1.12-2.62-1.41-3.91-1.7-.77-.17-1.58-.34-2.5-.34-.65,0-1.26.09-1.89.26-.76.21-1.43.5-2.02.86.15-.87.4-1.96.72-3.12.43-1.56.64-2.35.95-3.4.35-1.17.55-1.8.72-2.33.18-.56.33-1.04.58-1.91.25-.87.66-2.33,1.07-4.28.18-.86.52-2.63.8-4.9.15-1.23.24-1.9.27-2.84.04-1.11.1-2.62-.26-4.49-.21-1.09-.5-2.58-1.5-4.3-1.04-1.79-2.32-2.88-2.98-3.38-.58-.43-2.17-1.48-4.46-1.95-.76-.16-1.56-.24-2.36-.24h0Z"/>
  </g>
  <path id="inside_l" class="cls-1" d="M229.56,11.93c-1.46.4-2.37,1.2-2.85,1.63-1.43,1.28-2,2.72-2.56,4.11-.59,1.47-.68,2.41-.7,2.85-.09,1.58.35,2.35.48,2.56.18.28.47.75,1.04.96.5.19,1.02.11,1.22.07.49-.08.52-.21.89-.22.43-.01.86.16,1.15.41.17.14.55.54.59,1.67.05,1.24-.35,2.1-.96,3.63-.37.93-.7,1.88-1.07,2.81-.47,1.2-1.21,3.06-1.74,4.7-.19.58-.9,2.85-1.37,5.93-.31,2.04-.54,3.55-.41,5.59.12,1.91.24,3.75,1.33,5.74,1.31,2.37,3.23,3.56,4.3,4.22,3.07,1.9,6.02,2.06,7.41,2.11,1.95.08,3.71.15,5.56-.93,1.95-1.14,2.84-2.87,3.17-3.55.91-1.85.86-3.4.78-5.64-.02-.69-.09-1.33-.5-1.97-.57-.9-1.47-1.24-1.86-1.39-.25-.09-2.08-.77-3.17.11-.3.25-.56.87-1.08,2.11-.48,1.14-.45,1.28-.72,1.58-.57.63-1.52.92-2.36.81-1.32-.17-2.05-1.29-2.39-1.81-.51-.78-.84-1.75-.89-3.61-.04-1.45.11-2.92.89-6.17.53-2.21,1.05-3.94,1.53-5.56.88-2.95,1.11-3.41,1.58-5.33.47-1.92.7-3.36.86-4.36.4-2.5.6-3.79.47-5.5-.08-1.06-.17-2.21-.78-3.56-.26-.58-.76-1.64-1.86-2.61-.39-.34-1.4-1.2-3-1.53-.37-.08-1.54-.28-2.96.11Z"/>
  <g>
    <path class="cls-4" d="M276.21,62.79c-2.38,0-4.59-.37-6.74-1.14-4.04-1.44-6.78-3.91-8.36-5.73-3.08-3.54-4.07-7.19-4.43-8.56-.65-2.42-.77-4.54-.87-6.09-.15-2.52,0-4.58.06-5.46.09-1.33.21-2.22.45-4.01.36-2.72.56-4.22,1-5.39.64-1.71,1.46-2.79,2.42-4.03,1.41-1.84,3.11-3.5,5.04-4.92,2.88-1.79,5.89-2.91,9.03-3.37,1.08-.16,2.15-.24,3.26-.24,1.69,0,3.16.18,4.46.35,2.48.31,4.89.89,7.18,1.72,1.39.5,2.39.87,3.58,1.66,1.07.71,3.56,2.37,4.3,5.17.43,1.62.67,2.52.36,3.51-.1.32-.1.43-.09.47.71.46.93.61,1.5.74,1.55.36,4.06,2.28,5.6,4.29,1.85,2.41,2.28,4.88,2.49,6.07.5,2.88.03,5.14-.19,6.23-.21,1.01-.75,3.06-2.03,5.36-.95,1.72-2.31,3.46-3.83,4.9-3.26,3.1-6.6,4.37-9.29,5.38-2.17.82-3.92,1.24-6.34,1.81-2.72.65-4.07.97-5.87,1.13-.75.07-1.64.14-2.69.14h0Z"/>
    <path class="cls-3" d="M277.06,14.85c1.62,0,3.04.18,4.33.34,1.79.22,4.23.67,6.96,1.67,1.44.52,2.3.84,3.37,1.56.97.65,3.24,2.16,3.89,4.59.39,1.49.59,2.24.37,2.96-.06.2-.27.79,0,1.26.11.2.27.3.37.37.69.45,1.03.68,1.78.85,1.24.29,3.57,2.02,5.04,3.93,1.67,2.17,2.08,4.4,2.3,5.63.46,2.64.05,4.72-.19,5.85-.12.57-.58,2.65-1.93,5.07-.37.66-1.52,2.64-3.65,4.67-3.11,2.96-6.37,4.19-8.95,5.17-2.1.79-3.83,1.21-6.22,1.78-2.67.64-4,.96-5.72,1.11-.68.06-1.56.14-2.6.14-1.76,0-3.97-.22-6.4-1.08-4.09-1.46-6.69-4.01-7.94-5.44-2.87-3.3-3.82-6.68-4.22-8.17-.62-2.32-.74-4.38-.83-5.89-.14-2.41-.01-4.34.06-5.33.09-1.3.21-2.18.44-3.94.37-2.74.56-4.13.94-5.17.59-1.57,1.35-2.57,2.28-3.78.96-1.25,2.5-3,4.83-4.72,3.51-2.18,6.68-2.9,8.58-3.19,1.12-.16,2.15-.23,3.11-.23M277.06,12.85c-1.16,0-2.27.08-3.4.25-3.27.48-6.42,1.65-9.35,3.46l-.07.04-.06.05c-2.01,1.48-3.77,3.2-5.24,5.12-.96,1.26-1.87,2.44-2.56,4.29-.47,1.26-.68,2.81-1.05,5.6-.24,1.81-.36,2.71-.46,4.07-.06.9-.21,3.01-.06,5.59.09,1.59.22,3.78.9,6.29.39,1.44,1.41,5.25,4.65,8.96,1.66,1.91,4.54,4.5,8.78,6.01,2.26.8,4.57,1.2,7.07,1.2,1.09,0,2-.07,2.78-.14,1.87-.17,3.34-.52,6.01-1.16,2.46-.59,4.24-1.01,6.46-1.85,2.63-.99,6.22-2.35,9.63-5.59,2.03-1.94,3.31-3.87,4.02-5.14,1.34-2.41,1.91-4.57,2.14-5.64.24-1.15.73-3.53.2-6.6-.22-1.27-.68-3.9-2.68-6.51-1.48-1.93-4.2-4.2-6.17-4.66-.25-.06-.38-.1-.61-.24.26-1.15-.02-2.22-.43-3.77-.84-3.17-3.66-5.04-4.72-5.75-1.29-.86-2.34-1.24-3.79-1.77-2.35-.86-4.84-1.45-7.4-1.77-1.33-.17-2.84-.35-4.58-.35h0Z"/>
  </g>
  <path id="inside_e" class="cls-1" d="M267.19,21.97c-1.29,1.17-2.09,2.29-2.52,2.89-.38.54-.97,1.42-1.56,2.59-.35.71-1.42,2.96-1.93,6.19-.17,1.09-.21,1.88-.26,2.85-.05.96-.16,3.29.15,5.93.36,3.07.74,6.36,2.96,9.48,1.38,1.94,2.9,3.02,4,3.78.86.6,5.85,3.96,12.52,3.48,1.92-.14,3.8-.73,7.56-1.93,3.39-1.08,5.08-1.61,6.59-2.52,4.97-2.98,7.03-7.7,7.48-8.81.68-1.67,1.81-4.44,1.19-7.93-.19-1.05-.64-3.36-2.52-5.33-1.2-1.26-2.44-1.82-4-2.52-1.32-.59-2.85-1.26-4.81-1.11-.88.07-1.93.16-2.59.96-.68.82-.58,1.93-.52,2.52.12,1.27.64,1.62,1.41,3.56.56,1.41.84,2.11.84,2.87,0,1.6-.91,2.84-1.95,4.25-.44.59-1.02,1.38-2,2.2-.89.74-2.89,2.42-5.78,2.44-2.16.02-3.65-.89-4.37-1.33-1.41-.86-1.68-1.59-1.75-1.97-.03-.17-.12-.61.11-1.03.21-.39.57-.55.78-.64.68-.3,1.34-.17,1.75-.08.32.07.38.12,1.5.58,1.34.56,1.5.59,1.67.61.2.02.95.1,1.75-.28.17-.08.5-.25,1.22-1,.91-.94,1.36-1.4,1.67-2.14.36-.86.34-1.62.31-2.31-.06-1.31-.4-1.51-.78-3.25-.3-1.4-.53-2.44-.22-3.72.28-1.18.88-1.97,1.14-2.31.35-.45,1.14-1.47,2.53-1.97.39-.14,1.4-.5,2.58-.25.72.15,1.84.61,2.3.34.21-.12.28-.29.28-.29.05-.11.05-.2.04-.47,0-.29-.01-.43-.01-.48-.04-.47.01-.88.02-1.06.04-.85-.56-1.96-.68-2.2-.3-.56-.85-1.39-1.96-2.26-.62-.49-2.14-1.55-5.48-2.3-3.27-.73-5.91-.61-6.85-.56-1.88.12-4.81.33-8.04,1.96-2.03,1.02-3.35,2.19-3.75,2.56Z"/>
  <g id="outside_b" class="cls-2">
    <path class="cls-4" d="M30.71,62.09c-.73,0-2.09,0-3.79-.35-1.6-.33-2.85-.59-4.12-1.6-.33-.26-.64-.56-.91-.88-.49.71-1.36,1.32-2.58,1.79-.95.38-1.74.52-1.96.56-.83.13-1.71.2-2.7.2-1.35,0-2.93-.13-4.68-.38-1.32-.19-2.9-.47-4.69-1.12-.83-.3-1.71-.69-2.56-1.49-.31-.29-1.04-.97-1.45-2.08-.18-.48-.33-1.14-.23-2.64.1-1.44.17-2.47.68-3.75.33-.83.98-1.71,2.26-3.47.44-.61.73-.98.94-1.25.3-.39.39-.51.58-.85.46-.82.84-2.01,1.08-2.86.31-1.11.44-1.84.74-3.6l.07-.39c.33-1.89.45-2.55.53-2.98.07-.37.11-.56.21-1.23.4-2.41.77-4.69,1.05-7.41,0-.04.42-4.25.41-7.73,0-.37-.02-.61-.03-.81-.02-.33-.04-.62.01-1.14v-.1c.04-.22.04-.29.02-.37-.06-.21-.28-.36-.4-.45-.08-.05-1.8-1.29-2.56-1.97-1-.89-1.69-1.92-2.07-3.07-.37-1.15-.31-2.09-.27-2.78.05-.77.14-2.21,1.07-3.69.63-1.01,1.38-1.62,1.77-1.9,1.28-.9,2.53-1.06,3.73-1.2.55-.07,1.14-.1,1.74-.1.94,0,1.91.08,2.85.25,2.28.4,3.9,1.16,4.67,1.53,1.69.8,2.86,1.64,3.29,1.97.64.49,1.71,1.31,2.8,2.71.57.73,1.34,1.74,1.83,3.24.35,1.09.38,2.13.44,4.03.03,1.04.01,2.06-.06,3.04-.04.58-.12,1.67-.38,3.06-.2,1.08-.48,2.17-.81,3.17.3-.16.61-.31.93-.45,2.01-.87,3.79-.98,5.12-.98.23,0,.45,0,.66,0,1.19.02,4.33.25,7.76,1.96,2.09,1.04,3.43,2.2,5.28,3.8,1.41,1.23,2.43,2.11,3.41,3.58,1.36,2.05,1.8,3.97,2.03,5,1.03,4.53-.01,8.34-.46,9.97-.32,1.17-.99,3.61-2.81,6.26-.91,1.33-2.02,2.57-3.21,3.6-2.63,2.27-5.27,3.22-7.02,3.85-1.37.49-2.77.87-4.16,1.12-.75.13-2.15.39-4.04.39h-.02Z"/>
    <path class="cls-3" d="M12.61,2c.73,0,1.65.05,2.68.23,2.1.37,3.6,1.06,4.42,1.44,1.73.81,2.87,1.67,3.11,1.86.65.5,1.63,1.26,2.61,2.53.55.72,1.24,1.6,1.67,2.94.31.95.33,1.88.39,3.75.04,1.41-.02,2.48-.06,2.94-.05.64-.12,1.64-.36,2.94-.31,1.68-.73,2.93-.92,3.44-.29.83-.59,1.52-.83,2.03l-.27.76c.68-.69,1.84-1.68,3.52-2.41,1.82-.79,3.44-.9,4.72-.9.23,0,.44,0,.65,0,.73.01,3.84.12,7.33,1.85,1.98.98,3.23,2.07,5.07,3.67,1.45,1.25,2.34,2.04,3.22,3.37,1.23,1.86,1.64,3.59,1.89,4.67.96,4.2.05,7.69-.44,9.48-.34,1.26-.98,3.5-2.67,5.96-1.2,1.75-2.44,2.89-3.04,3.41-2.49,2.15-4.95,3.03-6.7,3.67-1.75.63-3.19.93-4,1.07-.78.14-2.11.37-3.87.37,0,0,0,0-.01,0-.8,0-2.03,0-3.59-.33-1.51-.31-2.62-.54-3.7-1.41-.96-.77-1.48-1.68-1.74-2.26l-.3.96c-.05.14-.14.35-.28.57-.13.21-.6.88-2.17,1.5-.92.36-1.66.48-1.76.5-.65.11-1.47.19-2.53.19-1.18,0-2.65-.1-4.54-.37-1.29-.19-2.8-.46-4.49-1.07-.73-.26-1.49-.59-2.22-1.28-.31-.29-.87-.83-1.19-1.69-.12-.33-.26-.85-.17-2.22.09-1.37.16-2.31.61-3.44.28-.71.9-1.56,2.14-3.25,1.1-1.51,1.21-1.53,1.58-2.19.16-.28.62-1.14,1.17-3.08.35-1.24.48-2.04.83-4.08.61-3.51.51-2.76.75-4.22.4-2.46.78-4.72,1.06-7.47,0,0,.43-4.26.42-7.83,0-.97-.1-1.11-.02-1.85.03-.3.07-.54-.02-.86-.16-.53-.59-.84-.77-.97-.57-.41-1.89-1.38-2.48-1.9-.33-.29-1.31-1.18-1.78-2.63-.31-.97-.26-1.77-.22-2.42.05-.77.14-1.98.92-3.22.6-.96,1.33-1.49,1.5-1.61,1.05-.74,2.08-.88,3.28-1.03.28-.03.84-.09,1.62-.09M12.61,0c-.64,0-1.27.04-1.87.11-1.27.16-2.7.33-4.19,1.38-.45.32-1.32,1.03-2.04,2.18-1.06,1.7-1.17,3.36-1.22,4.16-.05.73-.11,1.83.31,3.15.43,1.33,1.22,2.51,2.35,3.52.76.67,2.33,1.81,2.61,2.01v.02c-.06.6-.04.96-.02,1.31.01.19.03.41.03.75.01,3.43-.4,7.59-.41,7.63-.27,2.68-.64,4.95-1.04,7.35-.11.66-.14.85-.21,1.21-.08.43-.21,1.1-.53,2.99l-.07.39c-.3,1.72-.42,2.44-.72,3.5-.32,1.14-.67,2.08-.98,2.64-.15.28-.21.35-.5.73-.21.27-.5.65-.95,1.27-1.33,1.83-2,2.74-2.38,3.69-.57,1.42-.65,2.58-.75,4.05-.12,1.69.07,2.46.29,3.05.49,1.33,1.34,2.12,1.71,2.46.99.92,2.02,1.37,2.9,1.69,1.88.68,3.52.98,4.89,1.17,1.8.26,3.42.39,4.83.39,1.04,0,1.97-.07,2.85-.21.24-.04,1.12-.2,2.17-.61.91-.36,1.66-.79,2.24-1.29.09.07.17.15.26.22,1.46,1.16,2.89,1.46,4.54,1.8,1.8.37,3.23.37,4,.38,2,0,3.51-.27,4.24-.4,1.45-.26,2.9-.65,4.33-1.16,1.82-.65,4.56-1.64,7.33-4.03,1.25-1.08,2.42-2.39,3.38-3.79,1.91-2.79,2.61-5.34,2.95-6.57.46-1.7,1.55-5.68.47-10.45-.25-1.09-.71-3.12-2.17-5.33-1.05-1.58-2.17-2.55-3.58-3.78-1.91-1.65-3.29-2.85-5.49-3.95-3.48-1.73-6.62-2.03-8.19-2.06-.22,0-.44,0-.68,0-1.2,0-2.76.09-4.52.68.1-.41.19-.83.26-1.24.27-1.44.35-2.57.39-3.17.07-.99.09-2.08.06-3.14-.06-1.99-.09-3.08-.48-4.31-.54-1.66-1.37-2.75-1.99-3.54-1.16-1.51-2.34-2.41-2.98-2.9-.57-.43-1.77-1.28-3.47-2.08-.82-.39-2.52-1.19-4.93-1.61-1.01-.17-2.02-.26-3.03-.26h0Z"/>
  </g>
  <path id="inside_b" class="cls-1" d="M7.69,7.72c-.03-.35-.04-1.18.48-1.96.13-.2.56-.78,1.74-1.22.66-.25,1.77-.54,3.96-.26,2.81.36,4.8,1.31,5.3,1.56,1.47.73,2.7,1.33,3.78,2.7.95,1.21,1.33,2.42,1.61,3.31.11.36.51,1.69.59,3.74.11,2.64-.37,4.65-.85,6.59-.52,2.09-.82,3.32-1.56,4.93-.67,1.46-1.05,3.03-1.63,4.52-.08.19-.36.93-.11,1.7.06.17.22.66.63.81.24.09.54.06,1.19-.33.92-.56,1.2-1.06,2.04-1.81.18-.16.63-.49,1.52-1.15,1.16-.85,1.73-1.28,2.19-1.56.3-.19,1.41-.85,2.93-1.33.39-.12,2.11-.65,4.44-.59,2.72.06,4.72.87,5.87,1.35,1.79.74,3.76,1.57,5.37,3.59.9,1.13,1.32,2.19,1.63,2.96.98,2.44,1.01,4.54,1.02,5.93,0,.94,0,2.56-.52,4.59-.25.96-.95,3.3-2.78,5.78-1.63,2.21-3.42,3.51-4.41,4.15-1.06.68-2.41,1.56-4.41,2-1.12.25-2.46.23-5.15.19-1.67-.03-2.52-.04-3.33-.19-1.87-.33-3.24-.99-4.19-1.44-.85-.41-1.95-1.03-3.15-1.93l-.24-.08-.25-.04-.48.04-.29.21c-.05.07-.12.17-.19.31-.37.69-.28,1.21-.4,1.76-.17.74-.68,1.23-.87,1.41-.7.66-1.61.77-2.32.82-3.78.29-6.81-.3-6.81-.3-2.55-.5-3.61-1.03-4.42-1.64-1.05-.79-1.31-1.43-1.41-1.8-.16-.62-.04-1.14.22-2.19.32-1.29.78-2.19.93-2.46.65-1.21.97-1.82,1.57-2.17.38-.22,1.25-.58,2.02-1.07.07-.04.17-.11.3-.22.45-.39.62-.86.7-1.06.51-1.28.34-.28,1.02-2.25.72-2.11,1.26-4.26,1.39-4.78.49-1.98.74-2.97,1-4.42.26-1.45.41-2.58.58-3.94.15-1.15.26-2.06.36-3.31.12-1.49.14-2.6.17-3.61.04-1.53.02-2.55,0-3.36-.02-1.12-.06-1.7-.14-2.36-.11-.92-.27-1.56-.33-1.83-.25-1.02-.38-1.52-.75-2.06-.5-.72-1.13-1.11-1.39-1.25-.45-.25-.5-.16-1.33-.51-.64-.27-1.1-.46-1.61-.84-.43-.32-.87-.66-1.15-1.28-.31-.68-.25-1.35-.22-1.64.03-.29.09-.53.14-.71Z"/>
  <path id="circle2" class="cls-4" d="M282.22,32.17c-.18,1.05-.41,1.65-1.24,2.24-.9.64-1.78,1.11-2.88,1.11s-2.14-.45-2.87-1.19-1.13-1.67-1.13-2.73c0-1.24.59-2.35,1.52-3.07.68-.53,1.62-.95,2.54-.77,1.33.26,1.87.6,2.84,1.39.71.58,1.39,2.07,1.22,3.03Z"/>
  <g id="circle3">
    <path class="cls-4" d="M38.77,37.76c0,1.67-1.44,3.02-3.22,3.02-.89,0-1.77-.27-2.36-.81s-.86-1.37-.86-2.2.28-1.7.89-2.25c.58-.52,1.46-.77,2.32-.77,1.78,0,3.22,1.35,3.22,3.02Z"/>
  </g>
</svg>