<?xml version="1.0" encoding="UTF-8"?>
<svg id="bubble" xmlns="http://www.w3.org/2000/svg" viewBox="0 0 309.58 329.74">
  <defs>
    <style>
      .cls-1 {
        fill: #fff;
      }

      .cls-2 {
        stroke-width: 8px;
      }

      .cls-2, .cls-3, .cls-4, .cls-5, .cls-6 {
        isolation: isolate;
      }

      .cls-2, .cls-6 {
        fill: #8017ea;
        stroke: #080505;
        stroke-linecap: round;
        stroke-miterlimit: 10;
      }

      .cls-3 {
        fill: #561b92;
      }

      .cls-4 {
        fill: #ff5d7c;
      }

      .cls-7 {
        fill: #080505;
      }

      .cls-8 {
        fill: #f7f07c;
      }

      .cls-5 {
        fill: #fffc00;
      }

      .cls-9 {
        fill: #fff18d;
      }
    </style>
  </defs>
  <path id="circle" class="cls-2" d="M280.54,140.36c0,39.86-12.91,74.69-43.02,97.43-21.75,16.43-45.22,24.86-74.93,24.86-70.85,0-133.96-55.42-133.96-124.07S81.52,17.97,152.37,17.97s128.17,53.74,128.17,122.39Z"/>
  <path id="highlights" class="cls-3" d="M77.82,228.7c14.65,12.79,37.37,22.9,56.43,27.07,20.61,4.46,42.31,4.19,62.22-1.56,22.78-6.59,44.26-20.19,58.16-39.42,3.83-5.31,7.42-10.95,10.26-16.89,20.72-43.4,14.61-101.29-18.38-136.38-5.44-5.73-11.89-11.83-18.21-16.28-4.44-3.06-5.15-3.6-9.92-6.15-5.43-2.9-17.08-8.15-15.45-6.87,1.18.93,2.98,3,7.57,7.68,1.08,1.11,1.99,2.01,3.27,3.15.81.73,1.7,1.57,2.71,2.62.48.49.98,1.03,1.52,1.63,14.1,15.64,26.09,34.31,32.25,55.49,4.07,14.41,5.81,29.38,5.09,44.34-1.96,17.1-7.04,33.76-16.48,48.3-29.65,43.87-89.67,53.8-137.99,39.96-7.38-1.8-18.06-5.69-21.96-8.12-.58-.36-5.89-3.08-6.2-2.99-.23.06,1.73,1.88,5.08,4.37l.06.06Z"/>
  <path id="outiside_mouth" data-name="outiside mouth" class="cls-7" d="M113.54,160.83c9.62.83,17.32.65,22.98.24.64-.05,1.16-.09,2.11-.17,3.44-.28,12.9-1.05,20.78-2.28,8.97-1.39,15.7-3.33,22.44-5.28,5.43-1.56,10.54-3.38,14.55-5.06,4.53-1.9,8.07-2.99,9-3.87.15-.14.99-.98,2.3-1.26.32-.07,1.06-.21,1.93.07.26.09,1.37.45,1.91,1.59.1.21.46,1.03.19,1.96-.2.7-.66,1.15-.96,1.41-1.87,1.62-3.9,1.58-6.33,3.07-1.1.68-1.8,1.37-3.11,2.67-1.21,1.2-2.03,2.23-2.96,3.41-.32.41-1.25,1.59-2.37,3.22-.52.76-1.36,2.02-2.3,3.63-1.6,2.73-2.59,4.93-2.85,5.52-.85,1.91-1.37,3.36-1.85,4.74-.98,2.78-1.65,5.19-2.11,7.07-.56,2.27-.86,3.94-.93,4.33-.28,1.6-.43,2.8-.56,3.85-.23,1.92-.48,4.01-.56,6.74-.05,1.91,0,3.38.07,5.15.06,1.43.09,2.42.22,3.81.22,2.37.54,4.2.74,5.3.2,1.13.4,2.08.56,2.78l3.89-1.56c1.26-.49,2.19-1.03,2.81-1.44.67-.44,1.1-.8,1.93-1.04.45-.13,1.15-.32,1.96-.07.28.08.85.3,1.33.85.56.64.67,1.34.7,1.59.04.29.11,1.09-.33,1.89-.37.67-.93,1.02-1.33,1.26-1.78,1.05-3.16,1.51-5,2.3-1.51.64-1.45.71-2.81,1.26-.85.34-1.85.72-3.33,1.19-3.66,1.16-7,1.88-7.22,1.93-1.92.41-5.51,1.16-10.19,1.48-6.68.46-12.12-.2-15.37-.74-1.03-.17-5.99-1.02-12.22-3.26-2.33-.84-6.4-2.43-11.19-5.07-1.43-.79-4.16-2.36-7.41-4.67-1.14-.81-5.83-4.18-11.19-9.59-1.5-1.51-3.32-3.37-5.48-6.11-1.98-2.52-3.49-4.82-4.59-6.67l-1.44.96c-.58.38-1.1.67-1.52.89-.91.48-1.61.76-2.15.96-.69.27-1.04.4-1.37.43-.83.06-1.48-.25-1.74-.39-.22-.12-.83-.46-1.24-1.2-.12-.21-.53-.95-.35-1.83.21-1.07,1.14-1.67,1.8-2.09.4-.26.63-.33,1.31-.63.24-.1,2.01-.88,3.19-1.56,1.04-.61,1.7-1.2,2.64-2.06.65-.59,1.69-1.59,2.78-3,1.45-1.86,2.25-3.47,2.44-3.86.45-.91,1.15-2.5,1.64-4.61.56-2.4.57-4.33.56-5.19-.06-2.92-.72-5.08-1.08-6.25-.41-1.3-1.04-3.31-2.47-5.39-.97-1.41-1.46-2.12-2.22-2.81-.68-.61-.93-.93-1.44-1.58-.35-.44-.6-.81-.69-1.33-.08-.44-.02-.8.03-1.03.06-.29.19-.92.72-1.5.16-.18.67-.7,1.47-.83.51-.08.9.03,1.44.19.64.19,1.09.45,1.31.58.52.32.86.66,1.69,1.64,1.02,1.2,1.53,1.8,2.08,2.61.59.87.97,1.56,1.25,2.08.59,1.09.97,1.96,1.25,2.61.27.64.6,1.39.94,2.42.51,1.52.75,2.66.81,2.92.14.67.22,1.25.28,1.67l.24,1.02Z"/>
  <path id="tounge" class="cls-4" d="M121.73,203.77c1.7-1.36,3.08-2.25,3.98-2.8.68-.41,1.16-.66,1.39-.78,1.06-.54,1.88-.86,2.7-1.17.71-.27,1.93-.72,3.61-1.17.93-.24,1.96-.51,3.37-.7.43-.06,1.72-.22,3.43-.2.87,0,2.28.03,4.07.37.68.13,1.47.28,2.48.65.86.31,1.83.65,2.87,1.41,1.69,1.22,2.44,2,2.44,2,.23.24.51.55.98.66.57.13,1.03-.13,1.59-.37.77-.33,1.61-.43,2.41-.67,2.11-.62,4.22-.69,4.85-.7.5-.01,2.36-.04,4.74.44,2.79.57,4.75,1.54,5.15,1.74.94.47,3.25,1.73,5.52,4.15,1.94,2.07,2.95,4.03,3.56,5.22.62,1.23,1.05,2.32,1.33,3.15l.3,1.07c-.47.14-1.12.33-1.89.54-.74.2-2.66.7-5.41,1.21-1.55.29-3.51.65-6.07.89-3.93.37-6.97.22-9.22.11-1.36-.07-3.51-.18-6.33-.59-3.14-.46-5.56-1.05-6.78-1.37-2.74-.72-4.9-1.49-6.22-2-3.11-1.19-5.36-2.36-6.67-3.04-2.43-1.27-4.14-2.34-5.78-3.37-1.84-1.16-2.97-1.95-3.93-2.67-.71-.53-1.29-.99-1.7-1.33l-.78-.69Z"/>
  <g id="white-eye2">
    <path class="cls-1" d="M114.44,124.6c-19.03,0-34.51-15.45-34.51-34.43s15.48-34.43,34.51-34.43,34.51,15.45,34.51,34.43-15.48,34.43-34.51,34.43Z"/>
    <path class="cls-7" d="M114.44,58.09c17.76,0,32.16,14.36,32.16,32.08s-14.4,32.08-32.16,32.08-32.16-14.36-32.16-32.08,14.4-32.08,32.16-32.08M114.44,53.39c-20.32,0-36.86,16.5-36.86,36.78s16.53,36.78,36.86,36.78,36.86-16.5,36.86-36.78-16.53-36.78-36.86-36.78h0Z"/>
  </g>
  <g id="white-eye">
    <path class="cls-1" d="M194.66,124.83c-19.03,0-34.51-15.45-34.51-34.43s15.48-34.43,34.51-34.43,34.51,15.45,34.51,34.43-15.48,34.43-34.51,34.43Z"/>
    <path class="cls-7" d="M194.66,58.32c17.76,0,32.16,14.36,32.16,32.08s-14.4,32.08-32.16,32.08-32.16-14.36-32.16-32.08,14.4-32.08,32.16-32.08M194.66,53.62c-20.32,0-36.86,16.5-36.86,36.78s16.53,36.78,36.86,36.78,36.86-16.5,36.86-36.78-16.53-36.78-36.86-36.78h0Z"/>
  </g>
  <g id="pupil2">
    <circle class="cls-7" cx="126.84" cy="89.48" r="14.02"/>
  </g>
  <g id="pupil">
    <circle class="cls-7" cx="206.99" cy="89.81" r="14.02"/>
  </g>
  <ellipse id="dot-pupil2" class="cls-1" cx="133.01" cy="85.04" rx="3.63" ry="3.62"/>
  <ellipse id="dot-pupil" class="cls-1" cx="213.23" cy="85.33" rx="3.63" ry="3.62"/>
  <path class="cls-7" d="M210.33,180.91c.4,1.26-.12,2.59-1.23,3.39-.86.63-2.12.91-3.18.83s-2,.26-2.34-.13c-.9-1.05-1.83-2.65-2.07-4.09-.1-.61-.31-1.44-.07-1.82,1.02-1.57,2.61-2.74,4.48-2.45.29.04.61.12.86.21,1.88.72,2.8,1.72,3.55,4.06Z"/>
  <path class="cls-7" d="M227.63,164.66c.4,1.26-.12,2.59-1.23,3.39-.86.63-2.12.91-3.18.83s-2,.26-2.34-.13c-.9-1.05-1.83-2.65-2.07-4.09-.1-.61-.31-1.44-.07-1.82,1.02-1.57,2.61-2.74,4.48-2.45.29.04.61.12.86.21,1.88.72,2.8,1.72,3.55,4.06Z"/>
  <path class="cls-7" d="M247.51,159.27c.28.22.65.49,1.1.76.3.18.58.33,1.14.61,1.02.52.96.46,1.21.62.49.3.96.59,1.33,1.15.4.6.47,1.2.51,1.54.07.56,0,.99-.06,1.36-.13.81-.39,1.39-.57,1.78-.22.47-.33.71-.56,1-.52.65-1.15.94-1.56,1.12-.29.13-.92.4-1.78.42-.9.02-1.56-.26-1.9-.4-.97-.41-1.55-1.01-1.88-1.36-.3-.31-.94-1.01-1.33-2.14-.17-.48-.42-1.23-.29-2.21.03-.23.17-1.17.88-2.1.42-.55.85-.86,1.18-1.08.73-.51,1.46-.78,2.04-.93l.52-.14Z"/>
  <path class="cls-7" d="M230.15,175.53c.28.22.65.49,1.1.76.3.18.58.33,1.14.61,1.02.52.96.46,1.21.62.49.3.96.59,1.33,1.15.4.6.47,1.2.51,1.54.07.56,0,.99-.06,1.36-.13.81-.39,1.39-.57,1.78-.22.47-.33.71-.56,1-.52.65-1.15.94-1.56,1.12-.29.13-.92.4-1.78.42-.9.02-1.56-.26-1.9-.4-.97-.41-1.55-1.01-1.88-1.36-.3-.31-.94-1.01-1.33-2.14-.17-.48-.42-1.23-.29-2.21.03-.23.17-1.17.88-2.1.42-.55.85-.86,1.18-1.08.73-.51,1.46-.78,2.04-.93l.52-.14Z"/>
  <path class="cls-7" d="M238.78,177.47c1.06-.51,1.94-.65,2.49-.69.38-.03.64-.02.72-.01.33.02,1.11.07,1.94.53.8.44,1.23,1.02,1.48,1.36.14.19.72,1.01.94,2.26.06.33.14.96.04,1.74-.05.42-.18,1.34-.83,2.32,0,0-.52.79-1.73,1.62-.15.1-.35.23-.64.29-.25.05-.47.03-.78-.02-.63-.11-1.11-.25-1.25-.29-.27-.08-.76-.24-1.4-.49-.5-.2-.75-.3-.99-.43-.39-.21-.96-.6-1.53-1.34l-.02-.62c-.01-.3-.02-.72,0-1.21.03-.65.06-1.25.25-2,.15-.57.33-.98.63-1.63.23-.52.45-.94.62-1.23l.06-.15Z"/>
  <path class="cls-7" d="M221.38,193.66c1.06-.51,1.94-.65,2.49-.69.38-.03.64-.02.72-.01.33.02,1.11.07,1.94.53.8.44,1.23,1.02,1.48,1.36.14.19.72,1.01.94,2.26.06.33.14.96.04,1.74-.05.42-.18,1.34-.83,2.32,0,0-.52.79-1.73,1.62-.15.1-.35.23-.64.29-.25.05-.47.03-.78-.02-.63-.11-1.11-.25-1.25-.29-.27-.08-.76-.24-1.4-.49-.5-.2-.75-.3-.99-.43-.39-.21-.96-.6-1.53-1.34l-.02-.62c-.01-.3-.02-.72,0-1.21.03-.65.06-1.25.25-2,.15-.57.33-.98.63-1.63.23-.52.45-.94.62-1.23l.06-.15Z"/>
  <path class="cls-8" d="M205.48,180.05c.16-.12.44-.28.82-.37.48-.11.88-.04,1.09,0,.03.03.07.07.11.13,0,0,.14.19.21.39.08.23.06.44.02.73-.02.13-.04.25-.15.66-.05.19-.12.44-.21.75h-.04s-.12.02-.12.02c-.04,0-.1,0-.17,0-.13,0-.37,0-.64-.07-.18-.05-.36-.1-.54-.26-.18-.15-.26-.33-.31-.42-.1-.22-.12-.4-.14-.58-.02-.19,0-.34,0-.48.01-.17.03-.31.05-.42v-.07Z"/>
  <path class="cls-8" d="M222.8,163.83c.16-.12.44-.28.82-.37.48-.11.88-.04,1.09,0,.03.03.07.07.11.13,0,0,.14.19.21.39.08.23.06.44.02.73-.02.13-.04.25-.15.66-.05.19-.12.44-.21.75h-.04s-.12.02-.12.02c-.04,0-.1,0-.17,0-.13,0-.37,0-.64-.07-.18-.05-.36-.1-.54-.26-.18-.15-.26-.33-.31-.42-.1-.22-.12-.4-.14-.58-.02-.19,0-.34,0-.48.01-.17.03-.31.05-.42v-.07Z"/>
  <path class="cls-8" d="M229.8,181.18c.12-.17.26-.25.34-.29.09-.04.16-.06.31-.1.1-.02.18-.04.42-.08.28-.04.28-.04.48-.07.29-.05.39-.07.46-.1.11-.04.2-.08.26-.1l.02.07s0,.06.01.1c0,.28-.14.48-.24.61-.17.23-.35.35-.5.44-.17.11-.39.25-.71.29-.14.02-.3.03-.47-.05-.18-.09-.27-.23-.29-.26-.1-.16-.1-.32-.09-.38v-.09Z"/>
  <path class="cls-8" d="M247.13,164.95c.12-.17.26-.25.34-.29.09-.04.16-.06.31-.1.1-.02.18-.04.42-.08.28-.04.28-.04.48-.07.29-.05.39-.07.46-.1.11-.04.2-.08.26-.1l.02.07s0,.06.01.1c0,.28-.14.48-.24.61-.17.23-.35.35-.5.44-.17.11-.39.25-.71.29-.14.02-.3.03-.47-.05-.18-.09-.27-.23-.29-.26-.1-.16-.1-.32-.09-.38v-.09Z"/>
  <path class="cls-9" d="M223.64,197.56c0-.12.03-.33.16-.52.12-.19.29-.29.56-.45.21-.12.23-.11.59-.3.25-.14.33-.2.41-.27.14-.14.22-.29.26-.39l.12.13c.05.06.11.14.18.24.17.24.34.49.44.82.11.36.1.68.07,1.1,0,.15-.02.27-.03.36l-.08.05s-.12.02-.21.04c-.34.08-.49.14-.72.21-.26.07-.45.13-.72.12-.12,0-.39-.02-.67-.18-.13-.07-.19-.15-.26-.22l-.04-.19-.02-.13-.02-.19v-.15s0-.08,0-.08Z"/>
  <path class="cls-9" d="M240.97,181.32c0-.12.03-.33.16-.52.12-.19.29-.29.56-.45.21-.12.23-.11.59-.3.25-.14.33-.2.41-.27.14-.14.22-.29.26-.39l.12.13c.05.06.11.14.18.24.17.24.34.49.44.82.11.36.1.68.07,1.1,0,.15-.02.27-.03.36l-.08.05s-.12.02-.21.04c-.34.08-.49.14-.72.21-.26.07-.45.13-.72.12-.12,0-.39-.02-.67-.18-.13-.07-.19-.15-.26-.22l-.04-.19-.02-.13-.02-.19v-.15s0-.08,0-.08Z"/>
  <path class="cls-6" d="M270.47,18.19c0,5.37-1.74,10.05-5.79,13.11-2.93,2.21-6.09,3.35-10.08,3.35-9.53,0-18.03-7.46-18.03-16.7s7.12-16.23,16.65-16.23,17.25,7.23,17.25,16.47Z"/>
  <path class="cls-3" d="M243.23,30.15c1.86,1.87,4.98,3.01,7.55,3.57,5.95,1.29,12.45-.67,16.2-5.52,4.32-5.9,3.96-15.26-1.09-20.63-.73-.77-1.6-1.59-2.45-2.19-.6-.41-.69-.48-1.34-.83-.73-.39-2.21-1.09-1.99-.92.16.12.59.74.92,1.03.31.27.56.49,1.01.99,1.9,2.1,3.51,4.62,4.34,7.47.55,1.94.78,3.96.68,5.97-.26,2.3-.95,4.54-2.22,6.5-3.99,5.9-12.07,7.24-18.57,5.38-.99-.24-2.43-.77-2.96-1.09-.08-.05-.83-.39-.87-.38-.03,0,.67.55.69.59l.04.03.04.03Z"/>
  <path class="cls-5" d="M245.56,6.95c.47.2.74.65.83.83.03.05.08.15.12.25.28.72-.12,1.58-.35,2.07-.3.65-.65,1.09-.88,1.36-.16.2-.52.61-1.07,1.04-.39.3-.62.48-.98.56-.17.04-.6.14-1.02-.08-.41-.22-.57-.62-.68-.94-.28-.75-.13-1.42-.07-1.69.12-.5.32-.83.54-1.19.46-.75.98-1.2,1.27-1.45.42-.36.67-.57,1.09-.71.29-.1.73-.24,1.19-.05h0Z"/>
  <path class="cls-5" d="M240.98,13.59c.41.14.62.49.76.72.08.14.15.24.18.41.01.07.1.45-.1.72-.25.35-.87.36-1.28.16-.52-.25-.63-.8-.65-.86-.01-.07-.08-.44.13-.81.06-.11.15-.27.34-.35.25-.12.5-.03.62.01Z"/>
  <path class="cls-6" d="M306.27,18.46c0,4.06-1.31,7.6-4.38,9.91-2.21,1.67-4.6,2.53-7.62,2.53-7.21,0-13.63-5.64-13.63-12.62s5.38-12.27,12.59-12.27,13.04,5.47,13.04,12.45Z"/>
  <path class="cls-3" d="M285.65,27.45c1.4,1.41,3.8,2.33,5.74,2.75,4.5.97,9.41-.51,12.25-4.17,3.26-4.46,2.99-11.53-.83-15.59-.55-.58-1.21-1.2-1.85-1.66-.45-.31-.52-.37-1.01-.63-.55-.3-1.72-.69-1.56-.56.12.09.5.42.75.64.24.21.42.37.77.75,1.43,1.59,2.65,3.49,3.28,5.64.41,1.47.59,2.99.52,4.51-.2,1.74-.72,3.43-1.68,4.91-3.02,4.46-9.12,5.47-14.04,4.07-.75-.18-1.84-.58-2.23-.83-.06-.04-.49-.37-.52-.37-.02,0,.39.48.41.51h0s0,0,0,0Z"/>
  <path class="cls-5" d="M287.45,9.97c.36.15.56.5.63.63.02.04.06.11.09.19.21.55-.09,1.19-.26,1.57-.23.49-.49.82-.67,1.03-.12.15-.39.46-.81.79-.3.23-.47.36-.74.42-.13.03-.46.1-.77-.06-.31-.17-.43-.47-.52-.71-.21-.57-.1-1.08-.05-1.28.09-.38.24-.63.41-.9.35-.57.74-.91.96-1.1.32-.27.51-.43.83-.54.22-.07.55-.18.9-.04h0Z"/>
  <path class="cls-5" d="M283.98,14.98c.31.11.47.37.57.55.06.1.11.18.14.31.01.05.07.34-.07.54-.19.27-.66.27-.96.12-.39-.19-.48-.61-.49-.65,0-.05-.06-.34.1-.61.05-.08.11-.2.26-.27.19-.09.38-.02.47.01Z"/>
  <path class="cls-6" d="M292.96,56.9c0,3.52-1.14,6.59-3.8,8.6-1.92,1.45-3.99,2.19-6.61,2.19-6.25,0-11.82-4.89-11.82-10.95s4.67-10.64,10.92-10.64,11.31,4.74,11.31,10.8Z"/>
  <path class="cls-3" d="M275.07,64.7c1.22,1.22,3.3,2.02,4.98,2.39,3.9.84,8.16-.44,10.62-3.62,2.83-3.87,2.59-10-.72-13.52-.48-.51-1.05-1.04-1.61-1.44-.39-.27-.45-.32-.88-.54-.48-.26-1.5-.6-1.35-.48.1.08.43.37.65.56.21.18.37.32.66.65,1.24,1.38,2.3,3.03,2.85,4.9.36,1.27.51,2.59.45,3.91-.17,1.51-.62,2.98-1.45,4.26-2.62,3.87-7.91,4.75-12.18,3.53-.65-.16-1.59-.5-1.94-.72-.05-.03-.43-.32-.45-.32-.02,0,.34.42.36.44h0s0,0,0,0Z"/>
  <path class="cls-5" d="M276.63,49.54c.31.13.48.43.55.54.02.03.05.1.08.17.19.47-.08,1.04-.23,1.36-.2.43-.43.71-.58.89-.1.13-.34.4-.7.68-.26.2-.41.31-.65.37-.11.03-.39.09-.67-.06-.27-.14-.37-.41-.45-.62-.18-.49-.09-.93-.05-1.11.08-.33.21-.54.35-.78.3-.49.64-.79.83-.95.27-.23.44-.37.72-.47.19-.06.48-.16.78-.03h0Z"/>
  <path class="cls-5" d="M273.62,53.89c.27.09.41.32.5.47.05.09.1.16.12.27,0,.04.06.29-.06.47-.17.23-.57.24-.84.11-.34-.17-.42-.53-.42-.56,0-.04-.05-.29.08-.53.04-.07.1-.17.22-.23.16-.08.33-.02.4,0Z"/>
</svg>